<?xml version="1.0" encoding="utf-8"?>
<!-- Generator: Adobe Illustrator 16.0.4, SVG Export Plug-In . SVG Version: 6.00 Build 0)  -->
<!DOCTYPE svg PUBLIC "-//W3C//DTD SVG 1.1//EN" "http://www.w3.org/Graphics/SVG/1.1/DTD/svg11.dtd">
<svg version="1.1" id="Layer_1" xmlns="http://www.w3.org/2000/svg" xmlns:xlink="http://www.w3.org/1999/xlink" x="0px" y="0px"
	 width="1000px" height="1000px" viewBox="0 0 1000 1000" enable-background="new 0 0 1000 1000" xml:space="preserve">
<g>
	
		<image overflow="visible" width="3498" height="4167" xlink:href="B05CBCFE838A6FFE.png"  transform="matrix(0.24 0 0 0.24 80.3413 0)">
	</image>
	<g>
		<path fill="#AC162C" d="M884.179,112.909c-29.382-15.25-89.19-45.611-171.508-69.305c-3.433-0.987-6.917-1.961-10.429-2.924
			l6.642,6.685c0.891,0.897,63.367,92.222-94.981,330.509c1.345,1.143,2.683,2.286,3.977,3.437
			c51.444,45.646,63.357,95.892,74.903,106.63c40.273,37.328,80.938,57.2,91.145,89.05c3.102,9.137-3.587,14.356-10.098,15.119
			h0.006c-0.926,0.11-1.852,0.139-2.747,0.066c-0.024-0.007-0.046-0.007-0.067-0.016c-0.882-0.072-1.727-0.234-2.512-0.498
			l0.044,0.748c0.065,1.104,0.109,2.404,0.109,3.844c0,9.79-2.095,26.245-14.934,33.624c0.031,0.323,0.053,0.645,0.081,0.97
			c0.044,0.588,0.087,1.183,0.118,1.779c0.022,0.542,0.022,1.094,0.029,1.645c0-0.015,0-0.037,0-0.053
			c0.028,1.97-0.022,3.971-0.212,6.02c-2.411,14.384-19.423,27.436-41.759,23.159c-7.583,11.442-28.866,29.419-59.683,32.543
			c-0.131-0.362,8.149-17.552,8.149-17.552s2.817-6.313,10.356-25.589c-0.244,0-10.076,12.162-44.97,21.548
			c0,0,11.87-23.181,12.148-42.428c-0.331-0.082-4.556,2.336-27.008,9.144c5.754-8.402,10.208-18.587,12.75-31.308
			c21.733,22.274,34.263,32.043,73.973,48.254c-88.051-35.489-80.608-121.152-142.899-113.663
			c-67.385,8.187-83.877,168.392,39.135,238.658c-25.708-16.63-43.494-39.273-55.458-61.91
			c13.993-1.911,24.988-10.905,25.532-10.802c2.58,2.593-0.647,24.126-1.272,33.475c19.497-7.871,27.039-20.607,27.405-20.526
			c0.538,22.421,0.391,23.435,1.838,41.087c13.493-13.572,25.442-27.052,25.442-27.052l0.572-0.05
			c3.552,33.879,2.992,32.975,2.205,46.499c-0.094,1.711-0.241,2.858-0.41,3.6c1.411,0.212,3.137,0.612,5.129,1.397
			c14.891,5.806,15.647,41.75-60.109,35.967c-61.587-4.668-117.14-39.436-168.636-78.806c-1.632-1.25-3.249-2.492-4.872-3.742
			c-5.688,31.411-6.057,61.771-1.007,90.962c12.258,70.919,53.517,117.331,81.098,141.252c9.327,5.004,18.844,9.929,28.603,14.75
			C1060.657,712.541,884.179,112.909,884.179,112.909z"/>
	</g>
	<path fill="#044437" d="M773.837,592.108c-0.926,0.11-1.852,0.139-2.747,0.066c-0.024-0.007-0.046-0.007-0.067-0.016
		c-0.904-0.072-1.771-0.234-2.58-0.507c-18.622-6.335-20.357-22.779-26.949-23.04c-0.441-0.015-0.897,0.042-1.382,0.178
		c-1.992,0.546-3.497,1.249-4.591,2.093c-0.037,0.031-0.083,0.053-0.118,0.082c-0.325,0.254-0.594,0.526-0.845,0.809
		c-0.038,0.044-0.09,0.083-0.125,0.132c-0.235,0.276-0.428,0.572-0.597,0.875c-0.028,0.059-0.072,0.11-0.103,0.169
		c-0.154,0.301-0.27,0.625-0.375,0.948c-0.013,0.066-0.044,0.125-0.065,0.191c-0.088,0.338-0.138,0.685-0.169,1.044
		c-0.006,0.065-0.022,0.131-0.029,0.197c-0.021,0.369-0.015,0.744,0.016,1.132c0.007,0.075,0.007,0.141,0.007,0.213
		c0.037,0.396,0.103,0.803,0.184,1.222c0.013,0.072,0.028,0.138,0.043,0.212c0.094,0.433,0.213,0.882,0.345,1.338
		c0.022,0.057,0.038,0.125,0.059,0.182c0.147,0.479,0.325,0.97,0.516,1.47c0.013,0.044,0.029,0.097,0.05,0.141
		c0.206,0.529,0.426,1.066,0.676,1.624c0.009,0.015,0.015,0.037,0.022,0.052c2,4.482,5.278,9.892,8.549,16.124
		c0.065,0.132,0.131,0.257,0.197,0.39c0.338,0.639,0.669,1.286,1,1.939c0.117,0.244,0.242,0.485,0.36,0.728
		c0.294,0.582,0.582,1.176,0.867,1.771c0.147,0.316,0.303,0.625,0.448,0.941c0.265,0.56,0.515,1.125,0.772,1.691
		c0.163,0.367,0.331,0.72,0.485,1.086c0.237,0.538,0.465,1.088,0.691,1.639c0.169,0.413,0.347,0.81,0.509,1.222
		c0.204,0.529,0.403,1.064,0.601,1.601c0.169,0.448,0.347,0.882,0.509,1.338c0.212,0.602,0.41,1.22,0.616,1.836
		c0.279,0.847,0.544,1.698,0.794,2.558c0.153,0.55,0.322,1.088,0.469,1.647c0.14,0.528,0.257,1.064,0.39,1.601
		c0.125,0.522,0.257,1.036,0.367,1.566c0.118,0.542,0.212,1.095,0.316,1.646c0.096,0.537,0.206,1.066,0.294,1.617
		c0.087,0.537,0.147,1.095,0.222,1.638c0.072,0.566,0.153,1.132,0.212,1.705c0.059,0.544,0.088,1.095,0.132,1.647
		c0.044,0.588,0.087,1.183,0.118,1.779c0.022,0.542,0.022,1.094,0.029,1.645c0.009,0.485,0.028,0.957,0.028,1.441
		c0.288-0.118,0.575-0.19,0.869-0.339c18.763-9.37,19.594-33.063,19.026-43.264C773.868,592.108,773.853,592.108,773.837,592.108z"
		/>
	<path fill="#044437" d="M552.075,374.857l0.266-1.661c-179.014-69.906-264.181,133.065-152.116,290.2l0.729-0.654
		C368.923,594.886,366.521,361.723,552.075,374.857z"/>
	<path fill="#044437" d="M618.049,470.463l-0.031-0.082l0.522,0.625c0,0,0,0,0.016,0l9.928,12.096
		c1.485,5.637-6.078,7.298-6.078,7.298l-4.241-19.379c-21.121-0.199-29.095,12.243-39.861,11.655
		c-0.066,1.623-0.044,1.088-0.244,3.205c21.842,4.175,30.073,34.585,50.423,34.585c0.147-0.513,0.147-0.772,0.147-0.772
		s-4.056-11.245-0.948-16.507c5.357-2.975,8.284-9.597,9.613-13.785c9.416,7.113,25.604,8.774,33.101,5.091
		c0.515-0.594,0.199-0.146,0.581-0.653c-18.512-14.581-55.295-122.402-170.943-82.083c0.293,1.051,0.133,0.507,0.397,1.492
		C566.847,415.336,596.516,446.976,618.049,470.463z"/>
	<path fill="#044437" d="M501.813,725.725c0.375-0.397,0.31-0.316,0.72-0.757c-15.794-25.936-45.168-152.072,37.871-222.565
		c-0.625-0.941-0.25-0.413-0.932-1.367C419.972,535.359,465.074,702.582,501.813,725.725z"/>
	<g>
		<path fill="#044437" d="M734.498,644.23c-53.429-4.8-82.833-82.967-122.381-95.181
			C619.826,554.803,678.834,661.345,734.498,644.23z"/>
	</g>
	<path fill="#044437" d="M712.671,43.604c-59.949-17.255-131.817-30.977-212.674-32.718
		C308.112,15.017,166.599,86.554,115.82,112.909c0,0-176.479,599.632,384.177,876.199c0,0-132.331-77.763-103.837-243.238
		c-27.603-21.107-54.039-43.522-79.606-63.344c-0.232-0.175-0.467-0.36-0.702-0.542c-1.22-0.941-2.433-1.875-3.652-2.808
		c-0.669-0.516-1.342-1.029-2.014-1.536c-1.095-0.838-2.183-1.663-3.277-2.486c-0.794-0.594-1.588-1.191-2.382-1.786
		c-1.022-0.763-2.036-1.513-3.054-2.264c-0.866-0.645-1.735-1.279-2.597-1.911c-0.979-0.713-1.948-1.417-2.922-2.124
		c-0.919-0.663-1.834-1.308-2.749-1.961c-0.915-0.655-1.834-1.31-2.751-1.957c-1.049-0.735-2.095-1.454-3.144-2.174
		c-0.783-0.544-1.573-1.097-2.356-1.632c-1.77-1.207-3.538-2.389-5.302-3.549c-0.671-0.441-1.345-0.869-2.016-1.31
		c-1.154-0.748-2.308-1.499-3.456-2.227c-0.785-0.491-1.564-0.97-2.345-1.461c-1.042-0.647-2.093-1.294-3.137-1.926
		c-0.794-0.485-1.591-0.963-2.389-1.433c-1.033-0.61-2.064-1.22-3.097-1.816c-0.788-0.456-1.578-0.904-2.363-1.345
		c-1.051-0.595-2.102-1.176-3.152-1.742c-0.757-0.419-1.516-0.832-2.272-1.235c-1.117-0.587-2.227-1.16-3.337-1.726
		c-0.689-0.354-1.377-0.713-2.064-1.051c-1.421-0.707-2.843-1.389-4.262-2.051c-0.369-0.169-0.735-0.353-1.095-0.522
		c-1.775-0.816-3.543-1.595-5.313-2.336c-0.56-0.244-1.119-0.456-1.676-0.685c-1.224-0.5-2.448-0.998-3.666-1.461
		c-0.682-0.259-1.362-0.5-2.042-0.75c-1.099-0.404-2.2-0.794-3.295-1.169c-0.721-0.242-1.437-0.47-2.154-0.704
		c-1.066-0.34-2.132-0.669-3.196-0.979c-0.722-0.212-1.441-0.418-2.161-0.618c-1.088-0.3-2.17-0.573-3.253-0.836
		c-0.682-0.169-1.367-0.347-2.049-0.5c-1.18-0.266-2.36-0.5-3.541-0.729c-0.579-0.11-1.161-0.241-1.742-0.344
		c-1.751-0.31-3.506-0.582-5.25-0.794c115.606-20.989,235.712,201.148,394.41,179.615
		c-220.858-39.282-181.004-327.873-51.296-347.185c0-1.316,0-0.691,0.044-1.516c-114.347-27.065-193.954,120.976-85.009,286.851
		c-0.391,0.316-0.882,0.807-0.882,0.807s-96.907-60.8-120.476-148.786l-0.75-0.147c0,0-3.519,15.419-1.264,40.039
		c-0.41,0.169-0.807,0.103-0.807,0.103s-74.85-177.205,33.747-282.542c0,0-137.64,48.629-99.612,222.778
		c-4.251-4.903-10.74-18.66-14.298-34.107c0,0-8.599,24.51-2.955,64.071c-0.737,0.097-0.653,0.066-1.285,0.118
		c-69.355-164.47,54.532-255.924,108.869-280.816c28.808,21.636,56.823,18.322,56.823,18.322
		c-37.472-1.896-59.521-40.311-59.521-40.311c-18.579-28.663-38.731-33.072-38.731-33.072s-0.34-0.219-0.764-0.425
		c-0.099-0.044-0.173-0.103-0.268-0.153l22.389-1.795c61.056-0.109,90.75,25.758,104.513,44.874
		c52.865,3.992,95.056,21.548,128.472,40.907c2.442,1.415,4.809,2.852,7.136,4.3c0.715,0.447,1.419,0.895,2.117,1.344
		c1.661,1.051,3.286,2.108,4.888,3.175c0.707,0.474,1.426,0.947,2.125,1.421c2.064,1.408,4.094,2.823,6.061,4.251
		c0.678,0.493,1.323,0.984,1.992,1.479c1.332,0.987,2.654,1.977,3.939,2.968c0.911,0.698,1.801,1.404,2.689,2.102
		c1.007,0.805,1.999,1.61,2.983,2.415c0.906,0.746,1.823,1.485,2.713,2.231c1.542,1.307,3.065,2.624,4.548,3.938
		C769.121,153.281,722.694,53.684,712.671,43.604z"/>
	<g>
		<path fill="#044437" d="M744.464,637.952c-54.82-20.085-59.501-79.612-105.478-96.135c-0.11,0.397-0.095,0.362-0.241,0.656
			C649.166,549.034,691.079,643.193,744.464,637.952z"/>
	</g>
	<g>
		<path fill="#FFFFFF" d="M783.928,576.99c-10.208-31.85-50.872-51.722-91.145-89.05c-14.147-13.155-28.81-85.619-116.104-136.262
			c-33.416-19.359-75.606-36.915-128.472-40.907c-13.763-19.116-43.457-44.983-104.513-44.874l-22.389,1.795
			c0.094,0.05,0.169,0.109,0.268,0.153c0.423,0.206,0.764,0.425,0.764,0.425s20.153,4.41,38.731,33.072
			c0,0,22.048,38.415,59.521,40.311c0,0-28.015,3.314-56.823-18.322c0.154,0.338,0.051-0.021,0,0
			c-54.337,24.892-178.224,116.346-108.869,280.816c0.632-0.052,0.548-0.021,1.285-0.118c-5.644-39.561,2.955-64.071,2.955-64.071
			c3.558,15.448,10.047,29.205,14.298,34.107c-38.027-174.149,99.612-222.778,99.612-222.778
			C264.45,456.625,339.3,633.83,339.3,633.83s0.396,0.066,0.807-0.103c-2.255-24.62,1.264-40.039,1.264-40.039l0.75,0.147
			c23.569,87.986,120.476,148.786,120.476,148.786s0.491-0.491,0.882-0.807c-108.944-165.875-29.338-313.916,85.009-286.851
			c-0.044,0.825-0.044,0.2-0.044,1.516c-129.708,19.312-169.562,307.903,51.296,347.185
			c-158.698,21.533-278.804-200.604-394.41-179.615c103.591,12.883,214.913,189.69,359.48,200.642
			c75.756,5.782,75-30.161,60.109-35.967c-1.992-0.786-3.718-1.185-5.129-1.397c0.169-0.742,0.316-1.889,0.41-3.6
			c0.788-13.524,1.347-12.62-2.205-46.499l-0.572,0.05c0,0-11.949,13.48-25.442,27.052c-1.448-17.652-1.301-18.666-1.838-41.087
			c-0.366-0.081-7.908,12.655-27.405,20.526c0.625-9.349,3.852-30.882,1.272-33.475c-0.544-0.103-11.539,8.891-25.532,10.802
			c11.964,22.636,29.75,45.279,55.458,61.91c-123.012-70.266-106.52-230.471-39.135-238.658
			c62.291-7.489,54.848,78.173,142.899,113.663c-39.71-16.211-52.24-25.979-73.973-48.254c-2.542,12.721-6.995,22.906-12.75,31.308
			c22.452-6.807,26.677-9.225,27.008-9.144c-0.278,19.247-12.148,42.428-12.148,42.428c34.894-9.387,44.726-21.548,44.97-21.548
			c-7.54,19.276-10.356,25.589-10.356,25.589s-8.281,17.19-8.149,17.552c30.817-3.124,52.1-21.101,59.683-32.543
			c22.336,4.277,39.348-8.775,41.759-23.159c3.705-39.451-36.424-65.172-13.656-71.448c7.842-2.169,8.483,16.108,28.353,22.862
			C775.625,594.085,787.934,588.779,783.928,576.99z M502.533,724.968c-0.41,0.441-0.345,0.359-0.72,0.757
			c-36.739-23.143-81.841-190.366,37.659-224.688c0.682,0.954,0.307,0.425,0.932,1.367
			C457.365,572.896,486.739,699.032,502.533,724.968z M400.953,662.743l-0.729,0.654c-112.065-157.135-26.898-360.106,152.116-290.2
			l-0.266,1.661C366.521,361.723,368.923,594.886,400.953,662.743z M578.061,485.882c0.2-2.117,0.178-1.582,0.244-3.205
			c10.766,0.588,18.74-11.854,39.861-11.655l4.241,19.379c0,0,7.563-1.661,6.078-7.298l-9.928-12.096c-0.016,0-0.016,0-0.016,0
			l-0.522-0.625l0.031,0.082c-21.533-23.487-51.203-55.127-117.618-57.213c-0.264-0.985-0.104-0.441-0.397-1.492
			c115.648-40.319,152.431,67.502,170.943,82.083c-0.382,0.507-0.066,0.059-0.581,0.653c-7.496,3.683-23.685,2.022-33.101-5.091
			c-1.329,4.188-4.255,10.81-9.613,13.785c-3.108,5.263,0.948,16.507,0.948,16.507s0,0.259-0.147,0.772
			C608.134,520.468,599.903,490.057,578.061,485.882z M612.117,549.049c39.548,12.214,68.952,90.381,122.381,95.181
			C678.834,661.345,619.826,554.803,612.117,549.049z M744.464,637.952c-53.385,5.241-95.298-88.918-105.719-95.479
			c0.146-0.294,0.131-0.259,0.241-0.656C684.963,558.339,689.644,617.867,744.464,637.952z"/>
		<g>
			<path fill="#FFFFFF" d="M459.436,928.726v-16.843l-5.879,1.807l-0.579-2.676l7.268-3.359h3.108v21.071H459.436z"/>
			<path fill="#FFFFFF" d="M484.211,929.175c-6.351,0-9.944-2.992-9.944-8.055c0-4.125,2.939-6.248,5.225-7.268v-0.031
				c-2.417-1.498-3.997-3.43-3.997-6.607c0-4.306,3.44-7.693,9.407-7.693c6.21,0,8.709,4.041,8.709,7.481
				c0,3.777-3.042,5.981-4.387,6.769v0.05c3.284,1.185,5.357,3.521,5.357,7.114C494.581,925.609,490.671,929.175,484.211,929.175z
				 M483.058,915.35c-1.757,0.529-4.747,2.433-4.747,5.557c0,3.417,2.777,5.128,6.158,5.128c3.161,0,5.982-1.792,5.982-4.866
				C490.45,917.636,486.835,915.922,483.058,915.35z M485.703,912.586c1.579-0.933,3.815-2.593,3.815-5.373
				c0-2.365-1.795-4.6-4.962-4.6c-2.99,0-5.098,1.838-5.098,4.336C479.458,910.616,482.66,911.882,485.703,912.586z"/>
			<path fill="#FFFFFF" d="M511.117,929.175c-6.327,0-9.944-2.992-9.944-8.055c0-4.125,2.942-6.248,5.241-7.268v-0.031
				c-2.417-1.498-4.012-3.43-4.012-6.607c0-4.306,3.439-7.693,9.421-7.693c6.195,0,8.709,4.041,8.709,7.481
				c0,3.777-3.043,5.981-4.403,6.769v0.05c3.299,1.185,5.359,3.521,5.359,7.114C521.488,925.609,517.577,929.175,511.117,929.175z
				 M509.979,915.35c-1.757,0.529-4.748,2.433-4.748,5.557c0,3.417,2.762,5.128,6.151,5.128c3.168,0,5.982-1.792,5.982-4.866
				C517.364,917.636,513.762,915.922,509.979,915.35z M512.608,912.586c1.595-0.933,3.83-2.593,3.83-5.373
				c0-2.365-1.808-4.6-4.962-4.6c-2.99,0-5.114,1.838-5.114,4.336C506.363,910.616,509.59,911.882,512.608,912.586z"/>
			<path fill="#FFFFFF" d="M528.653,918.261c0-6.459,3.799-10.913,9.547-10.913c5.77,0,9.503,4.453,9.503,10.913
				c0,6.408-3.814,10.861-9.584,10.861C532.321,929.122,528.653,924.734,528.653,918.261z M538.169,910.566
				c-3.6,0-5.372,3.027-5.372,7.526c0,4.607,1.941,7.774,5.506,7.774c3.55,0,5.276-3.124,5.276-7.605
				C543.579,913.593,541.587,910.566,538.169,910.566z"/>
		</g>
		<g>
			<path fill="#FFFFFF" d="M153.573,203.619l-13.34-37.275l10.003-3.599l11.045,30.902l17.076-6.098l2.275,6.392L153.573,203.619z"
				/>
			<path fill="#FFFFFF" d="M193.149,189.832l-11.679-37.841l28.522-8.804l-0.708,7.262l-15.605,4.812l2.727,8.849l15.682-4.85
				l2.007,6.489l-15.676,4.85l2.983,9.649l18.212-5.622l1.992,6.408L193.149,189.832z"/>
			<path fill="#FFFFFF" d="M236.395,176.979l-10.308-38.247l10.341-2.777l10.289,38.231L236.395,176.979z"/>
			<path fill="#FFFFFF" d="M287.233,165.059c-16.396,3.668-27.629-2.874-30.08-13.772c-2.475-11.091,6.313-22.548,23.487-26.376
				c5.096-1.154,9.995-1.448,13.559-0.904l1.448,7.195c-4.856-1-9.205-0.772-13.173,0.116c-11.828,2.646-15.573,10.141-14.079,16.83
				c1.643,7.392,9.122,11.804,19.037,9.597c4.65-1.051,8.395-2.939,11.896-5.438l4.096,4.998
				C298.18,161.428,292.871,163.78,287.233,165.059z"/>
			<path fill="#FFFFFF" d="M318.307,158.076l-6.682-39.054l29.417-5.025l-1.632,7.113l-16.099,2.749l1.562,9.134l16.17-2.777
				l1.153,6.708l-16.18,2.758l1.698,9.941l18.789-3.203l1.132,6.629L318.307,158.076z"/>
			<path fill="#FFFFFF" d="M376.891,149.714c-7.364,0.903-12.868-0.303-16.742-1.698l3.38-6.41
				c3.381,1.213,7.439,2.169,12.083,1.594c3.718-0.462,7.783-2.036,7.408-5.025c-0.641-5.182-13.146-4.556-20.02-9.225
				c-2.152-1.498-3.749-3.534-4.115-6.576c-0.72-5.969,4.747-11.98,15.985-13.346c5.438-0.669,10.06-0.163,13.162,0.793l0.726,7.062
				c-4.569-1.249-8.347-1.889-12.537-1.36c-3.793,0.456-6.577,2.132-6.298,4.403c0.838,6.807,22.703,3.499,24.223,15.86
				C395.021,142.938,387.363,148.413,376.891,149.714z"/>
			<path fill="#FFFFFF" d="M443.503,110.035l-13.787,1l2.374,32.775l-10.758,0.803l-2.382-32.808l-15.022,1.104l-0.492-6.726
				l41.994-3.034L443.503,110.035z"/>
			<path fill="#FFFFFF" d="M460.915,142.216l-0.934-39.582l29.832-0.705l-2.661,6.79l-16.323,0.391l0.228,9.237l16.389-0.375
				l0.184,6.792l-16.426,0.388l0.25,10.091l19.05-0.457l0.162,6.741L460.915,142.216z"/>
			<path fill="#FFFFFF" d="M533.481,142.216c-7.54-10.485-10.547-15.007-12.405-15.602l-3.999-0.096l-0.375,15.25l-10.714-0.279
				l1.051-39.576l14.97,0.375c13.759,0.366,18.609,5.726,18.462,11.854c-0.147,5.16-4.85,8.531-9.65,10.023v0.066
				c2.551,1.2,7.379,8.004,14.86,18.293L533.481,142.216z M522.074,109.144l-4.535-0.116l-0.294,11.473l4.521,0.116
				c4.534,0.118,7.974-2.433,8.055-5.851C529.917,111.696,527.152,109.278,522.074,109.144z"/>
			<path fill="#FFFFFF" d="M623.869,116.377l-13.756-1.448l-3.455,32.697l-10.729-1.139l3.468-32.69l-15.007-1.58l0.707-6.688
				l41.875,4.425L623.869,116.377z"/>
			<path fill="#FFFFFF" d="M635.173,151.241l5.738-39.199l10.584,1.558l-5.734,39.186L635.173,151.241z"/>
			<path fill="#FFFFFF" d="M686.213,160.406c-16.029-3.087-23.937-13.669-21.827-24.583c2.183-11.326,15.332-18.014,32.609-14.7
				c6.592,1.288,10.927,3.029,14.794,4.887l-1.566,7.276c-3.828-2.448-8.134-4.387-13.2-5.357
				c-13.428-2.595-19.785,2.668-21.099,9.516c-1.448,7.483,3.712,14.979,14.229,16.999c2.93,0.559,5.672,0.719,7.612,0.494
				l2.514-13.04l10.517,2.045l-3.218,16.63C701.86,161.722,694.578,162.038,686.213,160.406z"/>
			<path fill="#FFFFFF" d="M723.128,167.645l9.584-38.429l28.957,7.233l-4.353,5.848l-15.845-3.947l-2.233,8.959l15.904,3.991
				l-1.641,6.591l-15.911-3.99l-2.446,9.812l18.491,4.615l-1.632,6.526L723.128,167.645z"/>
			<path fill="#FFFFFF" d="M793.078,186.842c-4.506-12.098-6.21-17.264-7.855-18.33l-3.815-1.145l-4.403,14.61l-10.257-3.109
				l11.471-37.9l14.353,4.337c13.162,3.997,16.433,10.435,14.663,16.308c-1.5,4.944-6.923,6.936-11.951,7.114l-0.013,0.066
				c2.13,1.845,4.998,9.663,9.479,21.562L793.078,186.842z M790.814,151.925l-4.328-1.294l-3.337,10.982l4.344,1.313
				c4.337,1.316,8.321-0.25,9.306-3.534C797.702,156.466,795.679,153.41,790.814,151.925z"/>
			<path fill="#FFFFFF" d="M829.993,199.888c-7.018-2.426-11.433-5.916-14.279-8.887l5.851-4.262
				c2.499,2.58,5.717,5.21,10.142,6.761c3.549,1.213,7.886,1.573,8.877-1.27c1.705-4.931-9.819-9.878-13.94-17.095
				c-1.279-2.279-1.808-4.815-0.801-7.708c1.968-5.682,9.531-8.659,20.245-4.962c5.16,1.794,9.093,4.293,11.458,6.513l-2.467,6.649
				c-3.537-3.137-6.66-5.357-10.651-6.73c-3.615-1.25-6.857-0.972-7.592,1.183c-2.255,6.476,18.853,13.126,14.794,24.9
				C849.264,201.783,839.958,203.34,829.993,199.888z"/>
		</g>
	</g>
</g>
<g>
</g>
<g>
</g>
<g>
</g>
<g>
</g>
<g>
</g>
<g>
</g>
</svg>
